# xmcd
#
# Track frame offsets:
#	150
#	18009
#	33241
#	46782
#	58292
#	72162
#	86970
#	98783
#	114107
#
# Disc length: 1913 seconds
#
# Revision: 0
# Processed by: cddbd v1.5.2PL0 Copyright (c) Steve Scherf et al.
# Submitted via: dBpowerAMP V4.0
#
DISCID=69077709
DTITLE=One-Eyed Mule - Hobo In The Land Of Love
DYEAR=2006
DGENRE=Country
TTITLE0=New Way Home
TTITLE1=Brother
TTITLE2=Blow My Past Away
TTITLE3=Hobo Serenade
TTITLE4=I'll Ba A-Waitin'
TTITLE5=Going To The Bright Lights, Going To The City
TTITLE6=Leen, Why Don't We Settle Down
TTITLE7=Long Gone Man
TTITLE8=Hobo In The Land Of Love
EXTD=
EXTT0=
EXTT1=
EXTT2=
EXTT3=
EXTT4=
EXTT5=
EXTT6=
EXTT7=
EXTT8=
PLAYORDER=
